<svg width="22" height="24" viewBox="0 0 22 24" fill="none" xmlns="http://www.w3.org/2000/svg">
<path d="M21.0929 17.4895C20.5409 18.7117 20.2769 19.2581 19.5679 20.3381C18.5775 21.8464 17.179 23.7286 15.4501 23.7415C13.9123 23.7544 13.5153 22.7381 11.4283 22.7548C9.34118 22.7649 8.90641 23.76 7.36672 23.7443C5.6378 23.7286 4.3141 22.0329 3.32272 20.5274C0.550719 16.3043 0.258104 11.3548 1.97133 8.72121C3.18333 6.85383 5.10149 5.75722 6.90241 5.75722C8.73656 5.75722 9.88949 6.76521 11.4061 6.76521C12.8775 6.76521 13.7738 5.75445 15.895 5.75445C17.4993 5.75445 19.1959 6.6286 20.4079 8.13691C16.4424 10.3098 17.0867 15.9738 21.0929 17.4895ZM14.2852 4.06891C15.0569 3.07845 15.6421 1.68091 15.4298 0.255676C14.1707 0.341522 12.6984 1.14552 11.8381 2.18675C11.059 3.13475 10.4129 4.54337 10.6649 5.90583C12.0384 5.95014 13.4599 5.13137 14.2852 4.06891Z" fill="black"/>
</svg>
