<svg width="20" height="15" viewBox="0 0 20 15" fill="none" xmlns="http://www.w3.org/2000/svg">
<rect width="19.871" height="14.4516" rx="1.80645" fill="#249F58"/>
<path fill-rule="evenodd" clip-rule="evenodd" d="M9.93552 1.92688L17.0323 7.2258L9.93552 12.5247L2.83875 7.2258" fill="#FFDA2C"/>
<path d="M9.93549 10.5978C11.7646 10.5978 13.2473 9.08813 13.2473 7.2258C13.2473 5.36347 11.7646 3.85376 9.93549 3.85376C8.10641 3.85376 6.62366 5.36347 6.62366 7.2258C6.62366 9.08813 8.10641 10.5978 9.93549 10.5978Z" fill="#1A47B8"/>
<path fill-rule="evenodd" clip-rule="evenodd" d="M8.51617 8.67096V9.6344H9.46241V8.67096H8.51617ZM10.4086 8.67096V9.6344H11.3549V8.67096H10.4086Z" fill="white"/>
<path fill-rule="evenodd" clip-rule="evenodd" d="M7.56995 5.78064C7.56995 5.78064 9.71223 6.16602 11.2565 6.8385L13.2474 7.70752" fill="white"/>
<path d="M7.56995 5.78064C7.56995 5.78064 9.71223 6.16602 11.2565 6.8385L13.2474 7.70752" stroke="white" stroke-width="0.903226"/>
</svg>
