<svg width="20" height="15" viewBox="0 0 20 15" fill="none" xmlns="http://www.w3.org/2000/svg">
<g clip-path="url(#clip0_128_1481)">
<g clip-path="url(#clip1_128_1481)">
<rect width="19.871" height="14.4516" rx="1.80645" fill="white"/>
<path fill-rule="evenodd" clip-rule="evenodd" d="M0 0H8.51613V6.74409H0V0Z" fill="#1A47B8"/>
<path fill-rule="evenodd" clip-rule="evenodd" d="M8.51613 0V0.963441H19.871V0H8.51613ZM8.51613 1.92688V2.89032H19.871V1.92688H8.51613ZM8.51613 3.85376V4.8172H19.871V3.85376H8.51613ZM8.51613 5.78065V6.74409H19.871V5.78065H8.51613ZM0 7.70753V8.67097H19.871V7.70753H0ZM0 9.63441V10.5978H19.871V9.63441H0ZM0 11.5613V12.5247H19.871V11.5613H0ZM0 13.4882V14.4516H19.871V13.4882H0Z" fill="#F93939"/>
<path fill-rule="evenodd" clip-rule="evenodd" d="M0.946228 0.96344V1.92688H1.89246V0.96344H0.946228ZM2.8387 0.96344V1.92688H3.78494V0.96344H2.8387ZM4.73117 0.96344V1.92688H5.67741V0.96344H4.73117ZM6.62365 0.96344V1.92688H7.56988V0.96344H6.62365ZM5.67741 1.92688V2.89032H6.62365V1.92688H5.67741ZM3.78494 1.92688V2.89032H4.73117V1.92688H3.78494ZM1.89246 1.92688V2.89032H2.8387V1.92688H1.89246ZM0.946228 2.89032V3.85376H1.89246V2.89032H0.946228ZM2.8387 2.89032V3.85376H3.78494V2.89032H2.8387ZM4.73117 2.89032V3.85376H5.67741V2.89032H4.73117ZM6.62365 2.89032V3.85376H7.56988V2.89032H6.62365ZM0.946228 4.8172V5.78064H1.89246V4.8172H0.946228ZM2.8387 4.8172V5.78064H3.78494V4.8172H2.8387ZM4.73117 4.8172V5.78064H5.67741V4.8172H4.73117ZM6.62365 4.8172V5.78064H7.56988V4.8172H6.62365ZM5.67741 3.85376V4.8172H6.62365V3.85376H5.67741ZM3.78494 3.85376V4.8172H4.73117V3.85376H3.78494ZM1.89246 3.85376V4.8172H2.8387V3.85376H1.89246Z" fill="white"/>
</g>
</g>
<defs>
<clipPath id="clip0_128_1481">
<rect width="19.871" height="14.4516" fill="white"/>
</clipPath>
<clipPath id="clip1_128_1481">
<rect width="19.871" height="14.4516" rx="1.80645" fill="white"/>
</clipPath>
</defs>
</svg>
