<svg width="56" height="35" viewBox="0 0 56 35" fill="none" xmlns="http://www.w3.org/2000/svg">
<path d="M13.8667 5.03271H15.4667V29.1896H13.8667V5.03271Z" fill="white"/>
<path d="M10.6667 5.03271H12.2667V29.1896H10.6667V5.03271Z" fill="white"/>
<path d="M20.8 5.03271H21.8667V29.1896H20.8V5.03271Z" fill="white"/>
<path d="M23.4667 5.03271H25.6V29.1896H23.4667V5.03271Z" fill="white"/>
<path d="M5.8667 5.03271H8.53337V29.1896H5.8667V5.03271Z" fill="white"/>
<path d="M17.0667 5.03271H19.7333V29.1896H17.0667V5.03271Z" fill="white"/>
<path d="M43.7334 29.1896H41.6001V5.03271H43.7334V29.1896Z" fill="white"/>
<path d="M46.4 29.1896H45.3334V5.03271H46.4V29.1896Z" fill="white"/>
<path d="M35.7334 29.1896H34.6667V5.03271H35.7334V29.1896Z" fill="white"/>
<path d="M28.8 29.1896H27.7334V5.03271H28.8V29.1896Z" fill="white"/>
<path d="M33.0667 29.1896H30.9333V5.03271H33.0667V29.1896Z" fill="white"/>
<path d="M50.6667 29.1896H48.5334V5.03271H50.6667V29.1896Z" fill="white"/>
<path d="M40 29.1896H37.3333V5.03271H40V29.1896Z" fill="white"/>
<path d="M54.9333 16.1046V18.1177H1.06668V16.1046H54.9333Z" fill="#585666"/>
<path fill-rule="evenodd" clip-rule="evenodd" d="M1.06667 0H0V1.00654V6.03922H1.06667V1.00654L6.4 1.00654V0H1.06667Z" fill="white"/>
<path fill-rule="evenodd" clip-rule="evenodd" d="M54.9333 34.2222L56 34.2222L56 33.2156L56 28.183L54.9333 28.183L54.9333 33.2156L49.6 33.2156L49.6 34.2222L54.9333 34.2222Z" fill="white"/>
<path fill-rule="evenodd" clip-rule="evenodd" d="M56 1.00654L56 0L54.9333 -4.66254e-08L49.6 -2.79753e-07L49.6 1.00654L54.9333 1.00654L54.9333 6.03922L56 6.03922L56 1.00654Z" fill="white"/>
<path fill-rule="evenodd" clip-rule="evenodd" d="M7.91947e-07 28.183L2.32442e-07 34.2222L1.06667 34.2222L6.4 34.2222L6.4 33.2156L1.06667 33.2156L1.06667 28.183L7.91947e-07 28.183Z" fill="white"/>
</svg>
